<?xml version="1.0" encoding="UTF-8"?>
<svg id="Layer_1" data-name="Layer 1" xmlns="http://www.w3.org/2000/svg" viewBox="0 0 358.62 358.62">
  <defs>
    <style>
      .cls-1 {
        fill: #fff;
      }

      .cls-2 {
        fill: #ed1c24;
      }
    </style>
  </defs>
  <rect class="cls-2" width="358.62" height="358.62" rx="44.03" ry="44.03"/>
  <path class="cls-1" d="m309.63,132.92c-2.43,5.7-6.73,8.34-15.61,9.35-3.21,8.31-6.5,16.83-9.79,25.35-11.21,29-22.37,58.02-33.61,87.02-2.4,6.24-5.28,12.25-10.14,17.03-6.54,6.43-14.22,8.76-23.23,6.48-4.92-1.24-8.68-4.17-11.94-7.9-4.82-5.57-7.74-12.17-9.61-19.13-4.86-18.05-9.53-36.14-14.14-54.27-1.99-7.82-3.7-15.71-5.77-24.7-.98,2.23-1.6,3.44-2.07,4.71-9.32,24.91-18.54,49.86-28.01,74.72-2.03,5.36-4.45,10.7-7.56,15.46-10.78,16.49-31.59,16.18-41.43-.88-3.91-6.76-6.7-14.37-8.91-21.91-13.49-45.87-26.64-91.83-39.9-137.79-2.41-8.29-4.73-16.57-7.12-24.96,3.34,0,6.66-.21,9.95.02,7.53.57,15.07,1.07,22.55,2.07,9.84,1.33,16.28,6.58,18.9,16.6,5.87,22.6,12.01,45.16,18.2,67.69,2.3,8.33,4.4,16.67,4.84,25.35.47,8.59.65,17.18-2.46,25.53-1.22,3.18-1.71,6.68-2.48,10.04.65-.9,1.44-1.79,1.83-2.79,16.06-42.55,32.09-85.09,48.14-127.63,1.27-3.34,2.67-6.73,4.56-9.73,4.03-6.45,9.99-9.79,17.73-9.14,7.69.67,13.29,4.69,15.9,11.9,1.99,5.57,3.32,11.4,4.53,17.18,5.65,26.55,11.21,53.12,16.7,79.72,1.16,5.61,1.87,11.34,2.87,17,.24,1.38.75,2.7,1.54,5.31,1.21-2.25,2.07-3.44,2.58-4.78,10.26-27.84,20.51-55.67,30.71-83.54,2.43-6.57,5.23-13.04,7.07-19.8,3.49-12.71,12.22-18.64,24.65-19.81,9.29-.85,18.61-1.09,28.74-1.66-4.48,11.68-8.75,22.79-13.13,34.18,5.25,4.84,8.03,10.49,4.92,17.71Z"/>
</svg>